<svg width="37" height="35" viewBox="0 0 37 35" fill="none" xmlns="http://www.w3.org/2000/svg">
<path d="M29.576 12.8988C30.9947 12.8981 32.3834 13.304 33.5753 14.0679C34.7673 14.8317 35.7117 15.921 36.2953 17.2048C36.8788 18.4886 37.0766 19.9124 36.8649 21.3051C36.6532 22.6978 36.041 24.0003 35.1018 25.0559V33.4679C35.1023 33.7027 35.042 33.9337 34.9268 34.1388C34.8116 34.3438 34.6453 34.5161 34.4438 34.639C34.2423 34.762 34.0124 34.8316 33.776 34.841C33.5397 34.8505 33.3049 34.7995 33.0941 34.6931L32.9283 34.5925L29.576 32.2664L26.2237 34.5925C26.0301 34.7267 25.8051 34.8094 25.5702 34.8327C25.3352 34.856 25.0982 34.8192 24.8816 34.7256C24.6651 34.6321 24.4764 34.485 24.3334 34.2984C24.1904 34.1119 24.098 33.892 24.065 33.6599L24.0521 33.4679V25.0523C23.1142 23.9966 22.503 22.6947 22.2919 21.3028C22.0808 19.9108 22.2787 18.488 22.8619 17.2049C23.445 15.9219 24.3887 14.8331 25.5796 14.0693C26.7706 13.3055 28.1582 12.8991 29.576 12.8988ZM32.3389 26.998C31.4611 27.3504 30.5229 27.5311 29.576 27.5301C28.6291 27.5311 27.691 27.3504 26.8131 26.998V30.8364L28.7858 29.4704C28.9878 29.3299 29.2239 29.2456 29.4698 29.2263C29.7156 29.207 29.9622 29.2534 30.1839 29.3606L30.3681 29.4704L32.3389 30.8364V26.998ZM31.8784 0.105286C33.1683 0.105222 34.4096 0.593714 35.3492 1.47112C36.2887 2.34853 36.8557 3.54875 36.9345 4.82696L36.9437 5.13418L36.9456 14.7275C36.1986 13.7402 35.2589 12.9124 34.1827 12.2935L34.1808 5.13418C34.1811 4.56828 33.9699 4.0224 33.5881 3.60217C33.2064 3.18194 32.6812 2.91724 32.1142 2.85929L31.8784 2.84832H5.17056C4.60056 2.84806 4.05073 3.05773 3.62746 3.43674C3.20419 3.81576 2.93757 4.33718 2.87921 4.90011L2.86815 5.13418V22.5067C2.86815 23.6899 3.77438 24.6646 4.93479 24.7798L5.17056 24.7926L21.6042 24.7944L21.8307 25.1656L22.0776 25.5241L22.2083 25.6959L22.2065 27.5356H5.17056C3.88038 27.5356 2.63882 27.0469 1.69923 26.1691C0.759632 25.2913 0.192829 24.0906 0.11448 22.8121L0.10527 22.5067V5.13418C0.105206 3.85357 0.597233 2.62118 1.48099 1.68839C2.36475 0.755589 3.57365 0.192663 4.86111 0.114429L5.17056 0.105286H31.8784ZM29.576 15.6418C28.3545 15.6418 27.183 16.1236 26.3193 16.9811C25.4555 17.8387 24.9703 19.0017 24.9703 20.2145C24.9703 21.4272 25.4555 22.5903 26.3193 23.4478C27.183 24.3053 28.3545 24.7871 29.576 24.7871C30.7975 24.7871 31.969 24.3053 32.8328 23.4478C33.6965 22.5903 34.1818 21.4272 34.1818 20.2145C34.1818 19.0017 33.6965 17.8387 32.8328 16.9811C31.969 16.1236 30.7975 15.6418 29.576 15.6418ZM17.1431 17.4705C17.4931 17.4706 17.83 17.6026 18.0857 17.8399C18.3415 18.0771 18.497 18.4019 18.5209 18.7485C18.5447 19.0952 18.4351 19.438 18.2143 19.7075C17.9934 19.9771 17.6777 20.1534 17.3309 20.2007L17.1431 20.2135H8.8544C8.50439 20.2134 8.16747 20.0814 7.91172 19.8442C7.65597 19.607 7.50045 19.2822 7.4766 18.9355C7.45274 18.5888 7.56232 18.2461 7.7832 17.9765C8.00408 17.707 8.31978 17.5307 8.66652 17.4833L8.8544 17.4705H17.1431ZM28.1946 7.41272C28.5446 7.41283 28.8815 7.54484 29.1373 7.78207C29.393 8.0193 29.5485 8.34407 29.5724 8.69076C29.5962 9.03745 29.4867 9.3802 29.2658 9.64976C29.0449 9.91932 28.7292 10.0956 28.3825 10.143L28.1946 10.1558H8.8544C8.50439 10.1557 8.16747 10.0236 7.91172 9.78641C7.65597 9.54918 7.50045 9.22441 7.4766 8.87772C7.45274 8.53104 7.56232 8.18829 7.7832 7.91873C8.00408 7.64916 8.31978 7.47289 8.66652 7.42553L8.8544 7.41272H28.1946Z" fill="#247BA0"/>
</svg>
