<svg width="34" height="35" viewBox="0 0 34 35" fill="none" xmlns="http://www.w3.org/2000/svg">
<path d="M16.9833 0.421082C7.78331 0.421082 0.333313 8.08424 0.333313 17.5263C0.333313 26.9684 7.78331 34.6316 16.9833 34.6316C26.2 34.6316 33.6666 26.9684 33.6666 17.5263C33.6666 8.08424 26.2 0.421082 16.9833 0.421082ZM17 31.2106C9.63331 31.2106 3.66665 25.0869 3.66665 17.5263C3.66665 9.96582 9.63331 3.84213 17 3.84213C24.3666 3.84213 30.3333 9.96582 30.3333 17.5263C30.3333 25.0869 24.3666 31.2106 17 31.2106Z" fill="#247BA0"/>
<path d="M17.8333 8.97369H15.3333V19.2369L24.0833 24.625L25.3333 22.5211L17.8333 17.954V8.97369Z" fill="#247BA0"/>
</svg>
